<svg width="256" height="256" viewBox="0 0 256 256" xmlns="http://www.w3.org/2000/svg" role="img" aria-label="Papel">
  <defs>
    <linearGradient id="papelOuter" x1="0" y1="0" x2="1" y2="1">
      <stop offset="0%" stop-color="#ffb86b" />
      <stop offset="55%" stop-color="#ff8a3d" />
      <stop offset="100%" stop-color="#ff6b2c" />
    </linearGradient>
    <linearGradient id="papelInner" x1="0" y1="0" x2="1" y2="1">
      <stop offset="0%" stop-color="#ffb3d5" />
      <stop offset="55%" stop-color="#f08bb6" />
      <stop offset="100%" stop-color="#ffb86b" />
    </linearGradient>
  </defs>
  <circle cx="128" cy="128" r="120" fill="url(#papelOuter)" />
  <circle cx="128" cy="128" r="92" fill="url(#papelInner)" />
  <path d="M128 30 L160 38 L198 60 L218 96 L226 128 L218 160 L198 196 L160 218 L128 226 L96 218 L58 196 L38 160 L30 128 L38 96 L58 60 L96 38 Z" fill="none" stroke="#ffd7a8" stroke-width="10" opacity="0.8" />
  <path d="M58 90 L78 80 L96 86" stroke="#ffd7a8" stroke-width="8" stroke-linecap="round" />
  <path d="M188 166 L168 176 L150 170" stroke="#ffd7a8" stroke-width="8" stroke-linecap="round" />
</svg>
